<?xml version="1.0" standalone="no"?>
<!DOCTYPE svg PUBLIC "-//W3C//DTD SVG 20010904//EN"
 "http://www.w3.org/TR/2001/REC-SVG-20010904/DTD/svg10.dtd">
<svg version="1.0" xmlns="http://www.w3.org/2000/svg"
 width="512.000000pt" height="512.000000pt" viewBox="0 0 512.000000 512.000000"
 preserveAspectRatio="xMidYMid meet">

<g transform="translate(0.000000,512.000000) scale(0.100000,-0.100000)"
fill="#000000" stroke="none">
<path d="M1328 4784 c-83 -20 -148 -56 -217 -120 -69 -63 -124 -163 -141 -253
-14 -75 -14 -3629 0 -3702 25 -131 131 -274 248 -333 113 -57 75 -56 1338 -56
731 0 1181 4 1215 10 90 17 190 72 253 141 66 71 100 134 121 221 22 95 22
3641 0 3736 -21 87 -55 150 -121 221 -63 69 -163 124 -253 141 -34 6 -482 10
-1220 9 -958 -1 -1176 -3 -1223 -15z m2438 -330 c15 -11 37 -33 48 -48 l21
-27 0 -1819 0 -1819 -21 -27 c-11 -15 -33 -37 -48 -48 -27 -21 -31 -21 -1206
-21 -1175 0 -1179 0 -1206 21 -15 11 -37 33 -48 48 l-21 27 -3 1792 c-1 986 0
1806 3 1824 7 40 49 91 90 109 24 11 242 13 1197 11 1161 -2 1167 -2 1194 -23z"/>
<path d="M1823 4142 c-75 -27 -130 -67 -164 -120 -56 -89 -60 -121 -57 -444 3
-292 3 -293 29 -349 33 -71 87 -125 158 -158 l56 -26 715 0 715 0 56 26 c71
33 125 87 158 158 l26 56 0 315 0 315 -26 56 c-33 71 -87 125 -158 158 l-56
26 -700 2 c-653 2 -704 1 -752 -15z m1377 -542 l0 -240 -640 0 -640 0 0 240 0
240 640 0 640 0 0 -240z"/>
<path d="M1690 2698 c-48 -25 -90 -89 -90 -138 0 -49 42 -113 90 -137 38 -20
60 -23 150 -23 90 0 112 3 150 23 48 24 90 88 90 137 0 49 -42 113 -90 138
-38 19 -60 22 -150 22 -90 0 -112 -3 -150 -22z"/>
<path d="M2490 2698 c-48 -25 -90 -89 -90 -138 0 -49 42 -113 90 -137 38 -20
60 -23 150 -23 90 0 112 3 150 23 48 24 90 88 90 137 0 49 -42 113 -90 138
-38 19 -60 22 -150 22 -90 0 -112 -3 -150 -22z"/>
<path d="M3290 2698 c-33 -17 -51 -35 -67 -68 -22 -43 -23 -54 -23 -310 0
-256 1 -267 23 -310 24 -48 88 -90 137 -90 49 0 113 42 138 90 21 43 22 54 22
310 0 256 -1 267 -22 310 -25 48 -89 90 -138 90 -14 0 -46 -10 -70 -22z"/>
<path d="M1690 2058 c-48 -25 -90 -89 -90 -138 0 -49 42 -113 90 -137 38 -20
60 -23 150 -23 90 0 112 3 150 23 48 24 90 88 90 137 0 49 -42 113 -90 138
-38 19 -60 22 -150 22 -90 0 -112 -3 -150 -22z"/>
<path d="M2490 2058 c-48 -25 -90 -89 -90 -138 0 -49 42 -113 90 -137 38 -20
60 -23 150 -23 90 0 112 3 150 23 48 24 90 88 90 137 0 49 -42 113 -90 138
-38 19 -60 22 -150 22 -90 0 -112 -3 -150 -22z"/>
<path d="M3290 1578 c-70 -35 -90 -85 -90 -218 0 -90 3 -112 23 -150 24 -48
88 -90 137 -90 49 0 113 42 138 90 19 38 22 60 22 150 0 90 -3 112 -22 150
-25 48 -89 90 -138 90 -14 0 -46 -10 -70 -22z"/>
<path d="M1690 1418 c-48 -25 -90 -89 -90 -138 0 -49 42 -113 90 -137 38 -20
60 -23 150 -23 90 0 112 3 150 23 48 24 90 88 90 137 0 49 -42 113 -90 138
-38 19 -60 22 -150 22 -90 0 -112 -3 -150 -22z"/>
<path d="M2490 1418 c-48 -25 -90 -89 -90 -138 0 -49 42 -113 90 -137 38 -20
60 -23 150 -23 90 0 112 3 150 23 48 24 90 88 90 137 0 49 -42 113 -90 138
-38 19 -60 22 -150 22 -90 0 -112 -3 -150 -22z"/>
</g>
</svg>
